<?xml version="1.0" standalone="no"?>
<!DOCTYPE svg PUBLIC "-//W3C//DTD SVG 20010904//EN"
 "http://www.w3.org/TR/2001/REC-SVG-20010904/DTD/svg10.dtd">
<svg version="1.0" xmlns="http://www.w3.org/2000/svg"
 width="220.000000pt" height="85.000000pt" viewBox="0 0 220.000000 85.000000"
 preserveAspectRatio="xMidYMid meet">

<g transform="translate(0.000000,85.000000) scale(0.100000,-0.100000)"
fill="#000000" stroke="none">
<path d="M167 795 l-38 -55 196 0 c160 0 195 2 188 13 -4 7 -21 32 -38 55
l-30 42 -120 0 -120 0 -38 -55z"/>
<path d="M505 643 c-4 -32 -24 -168 -46 -302 -21 -134 -39 -250 -39 -257 0
-20 27 -17 35 4 6 15 8 15 26 -7 40 -49 33 -51 -151 -51 -93 0 -170 2 -170 5
0 2 5 16 12 30 10 22 15 25 46 19 33 -6 35 -5 29 17 -8 34 -78 409 -82 439 -1
14 -3 35 -4 48 -1 20 -6 22 -48 21 -42 0 -52 -5 -76 -34 l-28 -34 93 -211 94
-211 -33 -35 c-73 -78 -82 -74 168 -74 l221 0 -14 23 c-8 12 -23 34 -33 50 -9
15 -23 27 -30 27 -9 0 27 93 96 252 60 138 109 255 109 260 0 5 -12 25 -26 44
-25 32 -30 34 -84 34 l-58 0 -7 -57z"/>
<path d="M760 517 c-32 -16 -47 -58 -32 -91 6 -14 33 -36 62 -51 40 -20 50
-30 50 -50 0 -36 -42 -45 -102 -20 -14 5 -18 2 -18 -14 0 -49 122 -52 160 -4
11 14 20 33 20 43 0 27 -35 65 -79 84 -75 34 -61 81 22 73 44 -4 48 -3 45 17
-3 18 -11 21 -53 24 -27 1 -61 -4 -75 -11z"/>
<path d="M952 443 c-20 -8 -42 -59 -42 -96 0 -68 68 -112 133 -88 44 17 34 36
-19 36 -37 0 -49 5 -61 23 l-15 22 66 0 66 0 0 35 c0 48 -29 75 -77 74 -21 0
-44 -3 -51 -6z m76 -35 c24 -24 13 -38 -28 -38 -26 0 -40 5 -40 13 0 18 21 37
40 37 9 0 21 -5 28 -12z"/>
<path d="M1100 374 c0 -41 4 -84 10 -94 14 -27 57 -34 88 -14 18 12 27 13 30
6 2 -7 12 -12 23 -12 17 0 19 8 19 95 0 88 -1 95 -20 95 -18 0 -20 -7 -20 -63
0 -73 -15 -101 -51 -95 -23 3 -24 7 -27 81 -3 74 -4 77 -27 77 -24 0 -25 -2
-25 -76z"/>
<path d="M1310 195 c0 -33 -2 -35 -33 -35 -33 0 -59 -19 -70 -50 -5 -16 -5
-16 -21 32 -4 14 -17 17 -71 17 l-65 -1 -1 -36 c-1 -22 -3 -29 -6 -17 -9 38
-34 55 -78 55 -53 0 -75 -22 -75 -77 0 -51 23 -73 77 -73 42 0 67 18 76 55 3
11 5 4 6 -17 1 -34 4 -38 26 -38 23 0 25 3 25 49 0 49 18 79 40 66 5 -3 10
-31 10 -61 0 -51 1 -54 25 -54 21 0 25 5 25 28 l0 27 13 -25 c11 -23 19 -25
80 -27 l67 -2 1 32 c0 18 3 25 6 17 13 -35 37 -50 78 -50 53 0 75 22 75 77 0
51 -23 73 -77 73 -39 0 -63 -16 -76 -50 -3 -8 -6 15 -6 53 -1 65 -2 67 -26 67
-22 0 -25 -4 -25 -35z m-322 -77 c30 -30 -2 -93 -36 -71 -21 13 -27 50 -12 69
15 17 32 18 48 2z m310 0 c30 -30 -1 -94 -33 -68 -25 20 -13 80 15 80 3 0 11
-5 18 -12z m170 0 c30 -30 -2 -93 -36 -71 -21 13 -27 50 -12 69 15 17 32 18
48 2z"/>
<path d="M1790 211 c-13 -26 -13 -31 3 -31 14 0 47 31 47 43 0 16 -40 5 -50
-12z"/>
<path d="M1987 216 c-8 -20 20 -43 35 -28 14 14 3 42 -16 42 -7 0 -16 -6 -19
-14z"/>
<path d="M749 191 c-24 -25 -29 -37 -29 -81 0 -73 28 -100 105 -100 50 0 55 2
55 23 0 20 -4 22 -43 19 -47 -4 -61 6 -72 48 -4 19 0 34 16 54 19 24 27 28 61
23 35 -5 38 -3 38 19 0 22 -4 24 -51 24 -43 0 -55 -5 -80 -29z"/>
<path d="M1530 84 c0 -72 1 -74 25 -74 24 0 25 3 25 54 0 38 4 55 15 60 20 7
35 -24 35 -73 0 -34 3 -41 20 -41 17 0 20 7 20 49 0 32 5 53 16 62 22 18 34
-3 34 -63 0 -41 3 -48 20 -48 18 0 20 7 20 63 0 36 -5 68 -12 75 -15 15 -64
16 -73 2 -5 -7 -11 -8 -19 -1 -6 5 -37 10 -69 10 l-57 0 0 -75z"/>
<path d="M1770 85 c0 -73 1 -75 25 -75 24 0 25 2 25 75 0 73 -1 75 -25 75 -24
0 -25 -2 -25 -75z"/>
<path d="M1830 84 c0 -72 1 -74 25 -74 23 0 25 3 25 49 0 49 18 79 40 66 5 -3
10 -31 10 -61 0 -47 2 -54 20 -54 18 0 20 7 20 64 0 39 -5 68 -13 74 -7 6 -38
11 -70 11 l-57 0 0 -75z"/>
<path d="M1990 85 c0 -68 2 -75 20 -75 18 0 20 7 20 75 0 68 -2 75 -20 75 -18
0 -20 -7 -20 -75z"/>
<path d="M2060 140 c-24 -24 -26 -77 -4 -108 19 -27 93 -31 118 -6 32 32 32
87 0 119 -23 22 -90 19 -114 -5z m74 -16 c10 -4 16 -18 16 -39 0 -41 -35 -59
-57 -29 -17 23 -16 39 3 58 18 18 17 18 38 10z"/>
</g>
</svg>
